<svg xmlns="http://www.w3.org/2000/svg" xmlns:xlink="http://www.w3.org/1999/xlink" viewBox="0 0 327.63 60"><defs><style>.cls-1{fill:url(#未命名的渐变_15);}.cls-2{fill:url(#未命名的渐变_15-2);}.cls-3{fill:url(#未命名的渐变_15-3);}.cls-4{fill:url(#未命名的渐变_15-4);}.cls-5{fill:#2d2d2d;}</style><linearGradient id="未命名的渐变_15" x1="44.97" y1="0.18" x2="44.97" y2="59.23" gradientUnits="userSpaceOnUse"><stop offset="0" stop-color="#84f6b7"/><stop offset="1" stop-color="#2dcb72"/></linearGradient><linearGradient id="未命名的渐变_15-2" x1="62.9" y1="0.18" x2="62.9" y2="59.23" xlink:href="#未命名的渐变_15"/><linearGradient id="未命名的渐变_15-3" x1="32.9" y1="0.18" x2="32.9" y2="59.23" xlink:href="#未命名的渐变_15"/><linearGradient id="未命名的渐变_15-4" x1="16.05" y1="0.18" x2="16.05" y2="59.23" xlink:href="#未命名的渐变_15"/></defs><title>资源 3</title><g id="图层_2" data-name="图层 2"><g id="图层_2-2" data-name="图层 2"><path class="cls-1" d="M56.25,30,41.33,0H33.69L48.17,29.11a2.06,2.06,0,0,1,0,1.78L33.69,60h7.64Z"/><path class="cls-2" d="M74.38,0H45.8L60.27,29.11a2,2,0,0,1,0,1.78L45.8,60H74.38A5.64,5.64,0,0,0,80,54.38V5.62A5.64,5.64,0,0,0,74.38,0Z"/><path class="cls-3" d="M21.65,60h7.58L44.14,30,29.23,0H21.65L36.12,29.11a2,2,0,0,1,0,1.78Z"/><path class="cls-4" d="M32.1,30,17.18,0H5.62A5.64,5.64,0,0,0,0,5.62V54.38A5.64,5.64,0,0,0,5.62,60H17.18Z"/><path class="cls-5" d="M105.73,19.18V40.26H119V43.7H101.75V19.18Z"/><path class="cls-5" d="M134.91,27.42a6.82,6.82,0,0,1,1.65,4.95V43.7h-3.64V41.36a7,7,0,0,1-2.54,2,9.7,9.7,0,0,1-4,.79A6.4,6.4,0,0,1,122,42.77a4.6,4.6,0,0,1-1.65-3.64,5.19,5.19,0,0,1,2.34-4.6,10.85,10.85,0,0,1,6.08-1.65l3.88-.1v-.69c0-2.33-1.27-3.47-3.82-3.47a4.82,4.82,0,0,0-2.6.59,3,3,0,0,0-1.48,2.06L120.87,31a6,6,0,0,1,2.88-4.29,10,10,0,0,1,5.36-1.2C131.72,25.47,133.68,26.12,134.91,27.42ZM129,35.7c-3.12.07-4.67,1.16-4.67,3.29a1.83,1.83,0,0,0,.79,1.55,3.41,3.41,0,0,0,2.1.65,5.8,5.8,0,0,0,3.81-1.3,4.35,4.35,0,0,0,1.58-3.4v-.9Z"/><path class="cls-5" d="M150.6,25.91v3.92a8.33,8.33,0,0,0-2.54-.38,3.81,3.81,0,0,0-2.78,1.2,4.76,4.76,0,0,0-1.41,3.64V43.7H140V26h3.88v2.54a6,6,0,0,1,1.68-2.06,4.22,4.22,0,0,1,2.82-1A5,5,0,0,1,150.6,25.91Z"/><path class="cls-5" d="M166,27.42a6.82,6.82,0,0,1,1.65,4.95V43.7H164V41.36a7,7,0,0,1-2.54,2,9.73,9.73,0,0,1-4,.79,6.38,6.38,0,0,1-4.36-1.41,4.6,4.6,0,0,1-1.65-3.64,5.19,5.19,0,0,1,2.34-4.6,10.81,10.81,0,0,1,6.07-1.65l3.88-.1v-.69c0-2.33-1.27-3.47-3.81-3.47a4.85,4.85,0,0,0-2.61.59,3.05,3.05,0,0,0-1.47,2.06L152,31a6,6,0,0,1,2.88-4.29,10,10,0,0,1,5.36-1.2C162.82,25.47,164.77,26.12,166,27.42Zm-5.87,8.28c-3.13.07-4.67,1.16-4.67,3.29a1.83,1.83,0,0,0,.79,1.55,3.4,3.4,0,0,0,2.09.65,5.8,5.8,0,0,0,3.81-1.3,4.35,4.35,0,0,0,1.58-3.4v-.9Z"/><path class="cls-5" d="M173.46,26l4.25,12.87L182,26h4.26L179.67,43.7h-3.91L169.2,26Z"/><path class="cls-5" d="M202,28.42a11.86,11.86,0,0,1,2.13,7.48H190.86a6.42,6.42,0,0,0,1.34,3.78,4.12,4.12,0,0,0,3.26,1.3,4.83,4.83,0,0,0,2.92-.82A6,6,0,0,0,200,38h3.91a8,8,0,0,1-2.47,4.15,8.82,8.82,0,0,1-5.91,2,8.32,8.32,0,0,1-6.28-2.44,9.45,9.45,0,0,1-2.47-6.94,9.57,9.57,0,0,1,2.33-6.62,7.69,7.69,0,0,1,6.25-2.71A8,8,0,0,1,202,28.42Zm-9.65,1.34A5.75,5.75,0,0,0,190.93,33h9.13c-.34-2.88-1.89-4.29-4.63-4.29A4.07,4.07,0,0,0,192.37,29.76Z"/><path class="cls-5" d="M210.8,18.7v25h-3.91v-25Z"/><path class="cls-5" d="M238.53,19.18c5.21,0,7.86,2.27,7.86,6.84s-2.65,6.9-7.9,6.9H230V43.7h-1.34V19.18ZM230,31.68h8.48a7.42,7.42,0,0,0,5-1.48A5.36,5.36,0,0,0,245.05,26a5.26,5.26,0,0,0-1.58-4.16,7.47,7.47,0,0,0-5-1.44H230Z"/><path class="cls-5" d="M260.29,25.81v1.41a10.15,10.15,0,0,0-2.82-.42,4.88,4.88,0,0,0-4.29,2.51,9.06,9.06,0,0,0-1.37,5V43.7h-1.34V26h1.34v3.7a6.65,6.65,0,0,1,2.06-2.85,5.57,5.57,0,0,1,3.67-1.33A8.71,8.71,0,0,1,260.29,25.81Z"/><path class="cls-5" d="M276.56,28.28a12.75,12.75,0,0,1,1.95,7H263.68a8.69,8.69,0,0,0,1.89,5.6A6.17,6.17,0,0,0,270.41,43a6.36,6.36,0,0,0,4.33-1.47,7.28,7.28,0,0,0,2-3.5h1.41a8.4,8.4,0,0,1-2.34,4.25,7.72,7.72,0,0,1-5.39,1.93,7.26,7.26,0,0,1-5.87-2.58,10,10,0,0,1-2.23-6.8,10,10,0,0,1,2.13-6.52,7.94,7.94,0,0,1,12.12,0Zm-10.89.48a8.88,8.88,0,0,0-2,5.32h13.46c-.38-4.94-2.61-7.41-6.73-7.41A5.93,5.93,0,0,0,265.67,28.76Z"/><path class="cls-5" d="M295.2,30.86h-1.31a4.86,4.86,0,0,0-1.58-3,6.09,6.09,0,0,0-4-1.16,5.8,5.8,0,0,0-3.5,1,2.66,2.66,0,0,0,.24,4.84,18.5,18.5,0,0,0,3.81,1.3,18.1,18.1,0,0,1,4.63,1.62,3.84,3.84,0,0,1,2.17,3.5c0,3.5-2.3,5.29-6.9,5.29-4.4,0-6.84-2-7.25-6h1.34a5.09,5.09,0,0,0,1.82,3.71A6.67,6.67,0,0,0,288.78,43c3.7,0,5.56-1.37,5.56-4a2.89,2.89,0,0,0-1.86-2.67,20.89,20.89,0,0,0-4.12-1.34A17.57,17.57,0,0,1,284,33.33a3.67,3.67,0,0,1-2-3.3,3.85,3.85,0,0,1,1.86-3.33,7.61,7.61,0,0,1,4.39-1.23C292.38,25.47,294.65,27.25,295.2,30.86Z"/><path class="cls-5" d="M312.94,28.28a12.83,12.83,0,0,1,2,7H300.07a8.69,8.69,0,0,0,1.89,5.6A6.16,6.16,0,0,0,306.8,43a6.33,6.33,0,0,0,4.32-1.47,7.29,7.29,0,0,0,2-3.5h1.4a8.46,8.46,0,0,1-2.33,4.25,7.75,7.75,0,0,1-5.39,1.93,7.26,7.26,0,0,1-5.87-2.58,10,10,0,0,1-2.23-6.8,10,10,0,0,1,2.12-6.52,7.19,7.19,0,0,1,5.94-2.81A7.12,7.12,0,0,1,312.94,28.28Zm-10.88.48a8.88,8.88,0,0,0-2,5.32h13.46c-.38-4.94-2.61-7.41-6.73-7.41A5.9,5.9,0,0,0,302.06,28.76Z"/><path class="cls-5" d="M322.72,26h4.91v1.2h-4.91V40a3,3,0,0,0,.48,2,2.18,2.18,0,0,0,1.79.58h2.23V43.7h-2.33a3.37,3.37,0,0,1-2.78-1,4.39,4.39,0,0,1-.69-2.75V27.15h-4V26h4V20.8l1.3-.59Z"/></g></g></svg>